<svg width="300" height="78" xmlns="http://www.w3.org/2000/svg" version="1.1">

 <g>
  <title>Layer 1</title>
  <path id="svg_1" d="m35.396,28.4c0,0.408 -0.204,0.748 -0.68,1.02l-14.416,9.248l14.212,9.112c0.544,0.34 0.816,0.748 0.816,1.156c0,0.272 -0.068,0.476 -0.272,0.816l-2.652,4.216c-0.34,0.544 -0.748,0.884 -1.156,0.884c-0.34,0 -0.748,-0.204 -1.224,-0.544l-19.176,-12.784c-0.612,-0.408 -0.952,-0.884 -0.952,-1.836l0,-1.768c0,-0.884 0.476,-1.428 1.156,-1.836l19.72,-12.716c0.408,-0.272 0.816,-0.408 1.088,-0.408c0.34,0 0.612,0.204 0.884,0.68l2.38,4.012c0.136,0.272 0.272,0.476 0.272,0.748zm63.75,31.484c0.068,1.156 -0.272,1.836 -1.564,1.836l-5.508,0c-1.428,0 -1.7,-0.68 -1.768,-2.244l-0.952,-27.608l-0.136,0l-11.56,28.628c-0.408,1.088 -1.088,1.224 -1.836,1.224l-2.38,0c-1.02,0 -1.632,-0.204 -2.108,-1.292l-12.852,-28.56l-0.136,0l-0.612,28.152c0,1.496 -0.612,1.7 -1.836,1.7l-4.624,0c-1.292,0 -1.836,-0.476 -1.768,-1.768l1.7,-43.452c0.068,-1.428 0.544,-1.836 1.632,-1.836l4.012,0c1.36,0 1.836,0.476 2.312,1.496l15.708,33.592l0.136,0l14.348,-33.592c0.408,-1.02 0.952,-1.496 2.176,-1.496l4.012,0c1.088,0 1.496,0.408 1.564,1.496l2.04,43.724zm39.134,-20.128c0,0.884 -0.544,1.428 -1.224,1.836l-19.652,12.716c-0.476,0.272 -0.816,0.476 -1.088,0.476c-0.34,0 -0.68,-0.204 -0.952,-0.68l-2.312,-4.012c-0.136,-0.272 -0.272,-0.544 -0.272,-0.816c0,-0.34 0.204,-0.748 0.68,-1.02l14.348,-9.18l-14.144,-9.18c-0.544,-0.34 -0.816,-0.68 -0.816,-1.088c0,-0.272 0.068,-0.544 0.272,-0.816l2.584,-4.284c0.34,-0.612 0.748,-0.884 1.156,-0.884c0.34,0 0.748,0.136 1.224,0.476l19.176,12.92c0.612,0.408 1.02,0.816 1.02,1.768l0,1.768zm39.746,-11.356c0,0.408 -0.204,0.748 -0.68,1.02l-14.416,9.248l14.212,9.112c0.544,0.34 0.816,0.748 0.816,1.156c0,0.272 -0.068,0.476 -0.272,0.816l-2.652,4.216c-0.34,0.544 -0.748,0.884 -1.156,0.884c-0.34,0 -0.748,-0.204 -1.224,-0.544l-19.176,-12.784c-0.612,-0.408 -0.952,-0.884 -0.952,-1.836l0,-1.768c0,-0.884 0.476,-1.428 1.156,-1.836l19.72,-12.716c0.408,-0.272 0.816,-0.408 1.088,-0.408c0.34,0 0.612,0.204 0.884,0.68l2.38,4.012c0.136,0.272 0.272,0.476 0.272,0.748zm31.586,-13.94c0,0.272 -0.136,0.68 -0.272,1.156l-14.076,45.56c-0.34,1.088 -0.68,1.36 -1.836,1.36l-4.828,0c-0.68,0 -1.02,-0.204 -1.02,-0.748c0,-0.204 0.068,-0.544 0.204,-0.884l14.212,-45.628c0.408,-1.224 0.748,-1.496 2.04,-1.496l4.42,0c0.748,0 1.156,0.136 1.156,0.68zm42.67,1.904l-0.476,3.944c-0.136,1.156 -0.884,1.428 -2.108,1.428l-12.308,0l0,38.42c0,1.292 -0.272,1.564 -1.428,1.564l-5.984,0c-1.224,0 -1.428,-0.272 -1.428,-1.496l0,-38.488l-12.716,0c-1.156,0 -1.564,-0.476 -1.564,-1.632l0,-4.012c0,-1.02 0.476,-1.428 1.496,-1.428l34.408,0c1.768,0 2.244,0.544 2.108,1.7zm34.51,23.392c0,0.884 -0.544,1.428 -1.224,1.836l-19.652,12.716c-0.476,0.272 -0.816,0.476 -1.088,0.476c-0.34,0 -0.68,-0.204 -0.952,-0.68l-2.312,-4.012c-0.136,-0.272 -0.272,-0.544 -0.272,-0.816c0,-0.34 0.204,-0.748 0.68,-1.02l14.348,-9.18l-14.144,-9.18c-0.544,-0.34 -0.816,-0.68 -0.816,-1.088c0,-0.272 0.068,-0.544 0.272,-0.816l2.584,-4.284c0.34,-0.612 0.748,-0.884 1.156,-0.884c0.34,0 0.748,0.136 1.224,0.476l19.176,12.92c0.612,0.408 1.02,0.816 1.02,1.768l0,1.768z" fill="#"/>
  <path id="svg_2" fill="#"/>
 </g>
</svg>